<?xml version="1.0" encoding="UTF-8" standalone="no"?>
<svg
   id="Layer_1"
   data-name="Layer 1"
   viewBox="22.662 653.302 2954.8395 1693.8001"
   version="1.1"
   sodipodi:docname="1117_ef1cc.svg"
   width="2954.8394"
   height="1693.8"
   inkscape:version="1.3.2 (091e20e, 2023-11-25, custom)"
   xmlns:inkscape="http://www.inkscape.org/namespaces/inkscape"
   xmlns:sodipodi="http://sodipodi.sourceforge.net/DTD/sodipodi-0.dtd"
   xmlns="http://www.w3.org/2000/svg"
   xmlns:svg="http://www.w3.org/2000/svg">
  <sodipodi:namedview
     id="namedview2"
     pagecolor="#ffffff"
     bordercolor="#000000"
     borderopacity="0.25"
     inkscape:showpageshadow="2"
     inkscape:pageopacity="0.0"
     inkscape:pagecheckerboard="0"
     inkscape:deskcolor="#d1d1d1"
     showgrid="false"
     inkscape:zoom="0.32015293"
     inkscape:cx="1477.4189"
     inkscape:cy="848.03223"
     inkscape:window-width="1920"
     inkscape:window-height="991"
     inkscape:window-x="-9"
     inkscape:window-y="-9"
     inkscape:window-maximized="1"
     inkscape:current-layer="Layer_1">
    <inkscape:grid
       id="grid3"
       units="px"
       originx="0.001267807"
       originy="0.0020000001"
       spacingx="1"
       spacingy="1"
       empcolor="#0099e5"
       empopacity="0.30196078"
       color="#0099e5"
       opacity="0.14901961"
       empspacing="5"
       dotted="false"
       gridanglex="30"
       gridanglez="30"
       visible="false" />
  </sodipodi:namedview>
  <defs
     id="defs1" />
  <path
     d="m 2977.5013,2005.202 v 10.3 c -5.8,9.3 -14.6,12.2 -24.8,11 a 147.36,147.36 0 0 1 -23.7,-5.2 c -16.5,-4.9 -33.8,-5.1 -50.2,-9.8 -0.8,-0.2 -1.7,-0.1 -2.6,-0.3 -11.4,-1.9 -22.7,-3.7 -34.1,-5.6 -13.7,-2.3 -27.4,-4.8 -41.1,-6.9 -5.3,-0.8 -10.9,0 -15.9,-1.5 -6.3,-1.9 -12.5,-2.5 -18.9,-3 -5.2,-0.4 -10.7,-0.3 -15.4,-3.5 -1.3,-0.9 -3.3,-0.9 -4.9,-1 l -74.7,-8.1 c -1.7,-0.2 -3.4,-1.2 -5,-1.7 0.8,-4.1 3.8,-4.7 6,-6.2 4.5,-3 4.5,-7.1 -0.5,-9.2 -3.7,-1.5 -7.8,-2.1 -11.7,-2.9 -6.9,-1.5 -12.9,2 -19.3,3.6 -6.1,1.5 -7.1,4.7 -3.9,10.4 a 19.38,19.38 0 0 1 0.8,2.1 c -3.1,0 -5.9,-0.1 -8.6,0 -9.4,0.4 -12.1,3.1 -12,12.4 0,1.5 0.4,3.1 -0.1,4.5 -0.9,2.8 -1.5,6 -3.3,8.1 -3,3.4 -3.2,6.8 -2.3,10.7 1.7,7.5 5.8,13.5 12.4,17.2 a 120.44,120.44 0 0 0 17.5,8 c 14.5,5.7 29.2,11 43.8,16.7 a 64.61,64.61 0 0 1 22.4,14.7 c 7.8,7.8 9,18.4 3,27.5 -2.2,3.3 -5.3,6.1 -8.3,8.8 a 11.25,11.25 0 0 1 -10.8,2.7 c -5.5,-1.4 -10.6,-0.2 -15.7,1.8 -6.3,2.6 -12.5,4.9 -19.5,5.6 -14.7,1.3 -29.3,3.3 -44,4.9 -5.5,0.6 -11.1,0.4 -16.7,0.9 -6.2,0.6 -7.4,1.6 -8.2,7.7 -1,7.6 -4.8,13 -11.5,16.8 a 134.94,134.94 0 0 0 -29,22.1 c -5,5.1 -11.9,8.2 -19.8,6.5 -4,-0.8 -8,-1.5 -12,-1.9 a 490.91,490.91 0 0 0 -84,-1.3 23.79,23.79 0 0 1 -3.8,-0.1 c -3.6,-0.2 -7.2,-0.3 -10.8,-0.5 -1.4,-0.1 -2.8,-0.3 -4.5,-0.5 0.3,-3.2 0.8,-6 0.9,-8.7 0.2,-4.5 -1,-6.2 -5.5,-7.2 a 86.51,86.51 0 0 0 -8.9,-1.1 c -8.3,-0.7 -16.6,-1.3 -25,-2.1 -26.9,-2.5 -53.6,-5.9 -80.7,-5.7 a 34.4,34.4 0 0 1 -10.1,-1.6 c -4.9,-1.7 -7.4,-5.6 -7.8,-10.7 -0.3,-3.2 1.1,-5.2 4.1,-6.4 11.5,-4.6 23,-9.3 34.4,-14.1 5.4,-2.3 5.9,-7.4 1.1,-10.9 -2.6,-1.9 -5.5,-3.2 -8.2,-5 a 17.71,17.71 0 0 0 -11.5,-3.2 c -5.2,0.4 -9.8,-0.5 -13.3,-4.8 -4.2,4.2 -9.3,3.2 -14.1,2.6 -16.9,-2.2 -33.8,-1.1 -50.6,1 -15.3,1.8 -30.6,4.2 -45.9,5.4 -28,2.2 -56,3.7 -84,5.6 -13.2,0.9 -26.5,2.3 -39.7,3.5 a 18.58,18.58 0 0 0 -4.1,1.2 c 9.2,7.5 17.9,14.8 26.7,21.8 6.4,5.1 12.8,10.1 19.4,14.8 3.1,2.2 6.8,3.4 6.8,8.3 0,1.4 1.8,2.8 2.8,4.2 2.4,3.3 5.1,6.4 7.1,9.8 2.3,4 5.6,6.1 9.8,6.1 a 28.77,28.77 0 0 0 10.6,-1.7 c 34.2,-13.4 69.8,-22 105.8,-28.8 a 32.74,32.74 0 0 1 7.6,-0.8 c 1.1,0.1 2.4,1.5 3,2.6 0.3,0.5 -0.9,2.2 -1.7,2.8 a 67.2,67.2 0 0 1 -9.6,5 c -30.5,12.6 -62.1,21.9 -93.5,31.9 -4.4,1.4 -8.7,2.9 -13.3,4.5 1.9,3.6 3.4,6.4 5,9.2 a 7,7 0 0 0 6.1,3.9 49.24,49.24 0 0 0 20.1,-2.4 c 10.1,-3.2 20.7,-5 31.1,-7.3 2.1,-0.5 4.2,-0.6 6.3,-0.9 11.4,-1.6 22.9,-3.1 34.3,-4.8 8.1,-1.2 16.1,-2.6 24.3,-2.1 a 172.63,172.63 0 0 1 -23.4,6.5 c -20.8,4.1 -41.7,7.7 -62.5,11.7 -7.9,1.5 -15.8,3.3 -23.7,5 a 7.71,7.71 0 0 0 -0.2,1.5 c 2.8,1.4 5.6,2.8 8.4,4.3 4.6,2.4 9,5 11.9,9.5 a 17.07,17.07 0 0 0 3.2,3.9 10.49,10.49 0 0 1 3.8,7.8 c 0.1,2.6 -0.3,5.6 2.8,7.6 1.8,-1.6 3.5,-3.2 5.3,-4.6 3.1,-2.3 6.3,-1.1 9,0.8 a 5.63,5.63 0 0 1 2.2,4.1 c -0.1,4.2 -7.6,12.8 -11.8,14.1 -4.7,1.4 -9.8,2 -14,4.3 a 28.49,28.49 0 0 1 -18,3.3 c -16.2,-2.1 -31.9,-6.2 -47.4,-11.2 -6.9,-2.2 -10.8,-7.1 -10.8,-14.3 0,-4.4 1.3,-8.8 2.3,-13.1 a 7.46,7.46 0 0 1 2.4,-3.7 c 6.9,-5 13.8,-10.2 23,-10.2 4.1,0 8.2,-1 12.8,-1.6 -2.1,-7.1 -3.5,-13.6 -8.9,-18.6 -7.4,3.3 -14.8,6.6 -22.2,10 -2.6,1.2 -3.7,3.2 -2.9,6.3 1.6,6.3 1.5,6.6 -4.3,8.1 -13.2,3.5 -26.5,6.8 -39.8,10.1 -8.9,2.2 -18.1,2.6 -26.8,6 -7.4,2.9 -15.3,0.9 -22.5,-2 -4.9,-2 -7.3,-6.4 -6.1,-10.7 1.4,-5 4.4,-9.1 9.3,-10.8 12.7,-4.3 25.6,-8.3 38.5,-12.2 15.4,-4.6 30.8,-8.9 46.3,-13.2 3.3,-0.9 6.7,-1.4 9.9,-2.5 5.5,-1.9 6.2,-4.8 2.2,-8.9 -5.5,-5.7 -11.4,-11 -17,-16.6 -4.4,-4.3 -9.1,-5 -14.7,-2.4 -12.1,5.5 -24.3,10.8 -36.4,16.1 a 74.68,74.68 0 0 0 -21.2,14.3 89.37,89.37 0 0 1 -8.8,7.5 c -4.4,3.1 -7.1,2.7 -10.6,-1.2 -3.8,-4.1 -4.2,-7.4 -0.4,-11.3 a 47.9,47.9 0 0 1 9.1,-7 c 9.3,-5.9 19.5,-9.8 30.1,-12.7 11.5,-3.2 23.2,-6 34.8,-8.9 2.5,-0.6 4.8,-1.8 4.8,-4.4 0,-1.5 -1.5,-3.4 -2.8,-4.5 -8.8,-6.8 -17.6,-13.5 -26.6,-20 -5.3,-3.9 -11,-7.2 -16.2,-11.3 -5.6,-4.4 -11.7,-5.8 -18.6,-5.1 -14.7,1.4 -29.4,2.6 -44.1,3.7 -16.7,1.2 -33.4,2 -50,3.6 -16.4,1.6 -32.8,2.5 -49.4,1.4 a 168.27,168.27 0 0 0 -30.1,0.7 c -23,2.4 -45.9,5.5 -68.8,8.5 -18.3,2.4 -36.5,4.7 -54.7,7.5 -15,2.3 -29.9,5.6 -44.9,7.9 -26.5,4.1 -52.8,8.8 -78.3,17.1 -14.7,4.8 -29.3,9.6 -44,14.1 a 58.82,58.82 0 0 1 -33,0.7 c -2.9,-0.8 -5.6,-2.9 -8.1,-4.8 -2.2,-1.7 -2.3,-4.1 -0.4,-6.2 1.4,-1.6 3.2,-2.9 4.5,-4.5 0.7,-0.8 0.9,-2.1 1.8,-4 -2.8,0.4 -4.6,0.7 -7.1,1.1 4.7,-6.8 10.6,-9.8 18.3,-9.5 29.9,1.5 58.7,-4.7 87.3,-12.8 40.9,-11.7 81.2,-25.7 123.2,-33.8 a 30.33,30.33 0 0 0 11.5,-5.4 23.24,23.24 0 0 1 9.9,-4.1 l 49.9,-9 c 15.2,-2.7 30.3,-5.6 45.5,-8.2 1.7,-0.3 4.5,-0.3 5.3,0.7 3.4,4.4 7.8,3.8 12.3,3.4 27.5,-2.9 55,-4.9 82.7,-4.5 3.6,0.1 7.2,-0.6 10.6,-0.9 0.9,-3.3 2.9,-6.4 -0.4,-8.7 -4.9,-3.4 -9.7,-7 -16.2,-7 -14.6,0.1 -29.1,0.2 -43.2,4.7 -2.4,0.8 -5.9,0.8 -8,-0.4 -3.1,-1.7 -6,-1.6 -9.2,-1.3 -8.9,1.1 -17.9,2 -26.8,3.1 -2.9,0.3 -5.2,0 -7.5,-2.4 a 12.41,12.41 0 0 0 -7.2,-3.6 c -12.8,-0.8 -25.7,-1.5 -38.5,-1.5 -34.1,0 -68.1,1.6 -102,4.2 -13.4,1 -26.9,1.7 -40.3,3.1 -27.9,3 -55.7,6.3 -83.6,9.6 -15.5,1.9 -31,3.7 -46.5,6.1 -16.5,2.6 -32.8,6.1 -49.3,8.6 -15.2,2.2 -30.5,3.6 -45.6,7 -38.6,8.7 -77.3,16.9 -116,25.4 -6.7,1.5 -13.1,1.3 -19.3,-2 a 24.29,24.29 0 0 0 -15,-2.5 c -12.6,1.7 -25.2,0.9 -37.7,-1.3 a 23.24,23.24 0 0 1 -8.2,-3.1 21.26,21.26 0 0 0 -14.7,-3.2 q -29.25,4.35 -58.4,8.8 a 87.45,87.45 0 0 0 -22.2,6.2 209.39,209.39 0 0 1 -26.2,10.3 c -20.1,5.9 -40.4,11.3 -60.7,16.7 -24.9,6.6 -47.2,18 -65.90003,35.8 -6.3,6.1 -12.2,12.7 -18.2,19 -1.5,1.6 -3.2,3.1 -5,4.8 -2.8,-4.3 -1.5,-7.5 0.7,-10.2 4.3,-5.4 8.4,-11 13.5,-15.4 8.5,-7.4 17.7,-14.3 26.80003,-20.9 a 103,103 0 0 1 30.4,-15.1 c 1.2,-0.4 2.7,-0.6 3.5,-1.5 1,-1.1 2.4,-3.2 2,-4.2 -0.6,-1.4 -2.6,-2.5 -4.2,-3.2 -1,-0.4 -2.5,0.4 -3.7,0.7 -5.6,1.4 -11.1,3.2 -16.8,4.1 -21.90003,3.4 -43.10003,9.3 -62.80003,19.8 a 29.85,29.85 0 0 1 -21.3,2.8 61.08,61.08 0 0 1 -15.8,-6.7 c -6.6,-3.8 -13.3,-5.6 -20.9,-4.1 -9.6,2 -19.2,3.9 -28.8,5.8 -19.3,3.8 -38.6,7.6 -58,11.1 -3.7,0.7 -7.6,0.1 -11.5,0 -5.5,0 -11.2,-0.9 -16.5,0.1 -8.6,1.6 -17,4.3 -25.4,6.8 -28.6,8.4 -57.2,16.5 -84,29.8 a 121.31,121.31 0 0 0 -22.4,14.6 c -9.9,7.9 -21.1,4.7 -24,-7.8 -1.3,-5.5 -2.6,-6.8 -8.3,-6.6 -13,0.6 -26.2,0.1 -39,3.4 a 308.77,308.77 0 0 1 -48.6,8.4 c -12.1,1.2 -24.1,3.8 -36.3,4.9 a 87.31,87.31 0 0 1 -20.4,-1 c -5.8,-0.9 -10.6,-4.5 -11.7,-10.5 -1.1,-6 -0.8,-12.4 4.6,-17.1 a 99.7,99.7 0 0 0 8.6,-8.6 81.18,81.18 0 0 1 25.4,-19.3 c 6.5,-3.2 13.2,-6.2 19.7,-9.4 10.4,-5.1 21,-9.8 31,-15.5 17.5,-9.9 35.5,-17.9 55.8,-20 1.5,-0.1 3.3,-0.2 4.2,-1.1 4.3,-4.3 9.8,-4.8 15.2,-6.1 29.3,-7.2 58.6,-14.4 87.8,-22 3.9,-1 7.5,-4 10.9,-6.4 1.5,-1 2.3,-3 3.7,-4.8 3.2,6 2.8,7.4 -1.6,10.4 -2.4,1.7 -5.8,2.5 -6.8,6.1 6.6,1.2 8.9,0.3 12.9,-4.1 6,-6.4 8.6,-14.2 9.4,-22.7 a 27,27 0 0 1 7.4,-16.7 c 8,-8.4 16.5,-16.2 27.2,-21.2 a 31.34,31.34 0 0 0 3.1,-1.8 c -3.4,-9.5 -7.3,-11.8 -16.5,-9.7 -11.5,2.6 -23,5.2 -34.3,8.2 -23.6,6.3 -47.1,12.7 -70.5,19.4 -14.8,4.2 -29.4,9.1 -44.1,13.8 -4.7,1.5 -9.5,2.7 -14.1,4.5 -18.8,7.5 -38,13.7 -55.5,24.6 -18.7,11.5 -40.5,13.3 -61.9,14.2 -6.1,0.2 -12.3,-1.4 -18.3,-2.9 -5.6,-1.4 -8.4,-5.8 -8.5,-11.5 -0.1,-6.2 1.6,-12.1 6.5,-16.2 8.1,-6.6 16.3,-13.2 25,-19.1 7.8,-5.3 15.5,-10.6 22.1,-17.5 3.6,-3.7 7.8,-6.9 13,-7.9 8.4,-1.5 14.9,-6.3 21.4,-11.2 a 22.5,22.5 0 0 0 3.8,-4.3 c 2.3,-3 4.4,-6.3 6.9,-9.2 4.4,-5.3 2.5,-13.5 -4.1,-15.4 a 76.52,76.52 0 0 0 -15.8,-2.5 c -12.7,-0.8 -23.9,3.1 -33.9,10.9 a 31.16,31.16 0 0 1 -4.9,3.1 71.69,71.69 0 0 1 -38,7.4 c -20.1,-1.6 -30.9,-11.5 -35.2,-31.3 -0.2,-1 -0.4,-2.1 -0.7,-3.1 -1.2,-4 -3,-5.2 -7.1,-4.6 -5.2,0.7 -9.7,3.1 -14,6 -4.6,3.1 -9.3,6.2 -14.4,8.3 -6.5,2.7 -13.5,4.1 -20.1,6.5 -12.1,4.2 -22.8,1 -32.8,-5.8 a 11.54,11.54 0 0 1 -3.6,-5 35.82,35.82 0 0 1 -2.4,-7.2 10.43,10.43 0 0 1 -0.1,-4.3 c 2.6,-9.8 7.2,-18.3 15.1,-24.8 a 13.47,13.47 0 0 1 11.3,-3.3 c 1.7,0.3 3.3,0.7 5,1 13,1.8 25.6,-12.3 21.9,-26.1 -1.9,1.7 -3.9,2.9 -5.1,4.7 -1,1.5 -1.2,3.6 -1.8,5.4 -1.5,4.7 -2.9,5.5 -9.1,4.7 6,-6.1 5.2,-12.2 0.6,-18.6 a 13,13 0 0 1 -2.1,-7.3 c 0,-11.8 1.1,-15.8 14.3,-12.6 0.2,0 0.4,0.1 0.6,0.1 12.1,3.7 21.4,-0.9 29,-10 3.8,-4.5 4.9,-9.8 3.8,-15.7 a 3.66,3.66 0 0 0 -6.7,-1.7 13.09,13.09 0 0 0 -2.1,5.8 c -0.3,1.6 0.2,3.4 0.2,5.1 -0.1,4.1 -3.3,5.3 -6.3,6.3 -3,1 -5.9,1.4 -7.4,-2.6 0.7,-0.9 1.4,-1.7 2,-2.6 6.2,-8.5 3.4,-16.9 -6.6,-20.1 a 31.28,31.28 0 0 0 -4.4,-1 c -5.5,-0.5 -11.1,-1.3 -16.6,-1.3 -7.5,0 -13.1,-3.3 -17.8,-8.7 -4.2,-4.7 -4.2,-7.1 0,-11.7 a 46.15,46.15 0 0 1 15.1,-10.7 c 6,-2.8 11.9,-5.8 17.8,-9 a 369.33,369.33 0 0 1 46,-21.4 c 10,-3.7 20,-7.7 29.8,-11.8 a 32.32,32.32 0 0 0 8.6,-5.5 c 5.7,-5 6,-5.1 11.6,-0.2 3.8,3.4 4.2,5.9 0.2,8.8 a 35.13,35.13 0 0 1 -11.4,5.4 c -11.4,3.1 -21.7,7.9 -30.5,15.8 a 54.35,54.35 0 0 0 -6.8,7.6 c -0.8,1.1 -1.2,3.6 -0.6,4.6 0.6,1 2.9,1.3 4.5,1.5 a 6.75,6.75 0 0 0 3.1,-0.5 c 14.6,-4.3 29.2,-8.4 43.6,-13 7.3,-2.3 13.8,-6.1 15.6,-14.7 0.2,-0.9 2.1,-1.4 3.3,-2 0.3,1.3 1.3,2.8 0.9,3.8 -2.9,6.9 -5.3,14.1 -14.6,15.2 a 6.21,6.21 0 0 0 -5.7,6.4 c 14.1,1.2 28.4,-9.2 29.8,-22.1 0.9,-8.2 0.2,-16.6 0.2,-24.4 -3.2,-1.5 -5.9,-2.7 -8.5,-4.1 a 59.23,59.23 0 0 0 -34.1,-6.6 c -8.7,0.8 -17.5,0.7 -26.3,0.7 -5.1,0 -9.6,-2 -13.6,-5 -5.9,-4.5 -6.9,-10.8 -3,-17 0.9,-1.4 2.3,-2.6 3.2,-4 1.7,-2.7 3.4,-5.4 4.8,-8.2 0.9,-1.9 1.3,-4.1 2.1,-6.1 2.7,-6.2 5.6,-8 12.1,-6.5 4.9,1.1 9.2,0 13.8,-1.3 7.4,-2.1 14.8,-4.1 22.4,-5.5 8.9,-1.6 17.5,-3.8 25.6,-8.1 a 116.53,116.53 0 0 1 34.4,-12.1 c 6.8,-1.2 13,-1.1 17.7,5.4 2.8,3.8 7.3,5 12.1,4.5 2.7,-0.3 4.8,-1.8 4.9,-4.3 0.4,-6.6 0.6,-13.2 0.4,-19.8 -0.1,-3.6 -2.5,-6.2 -6.3,-7.3 -4.5,-1.3 -8.9,-2.9 -13.5,-4.2 -20.6,-5.8 -41.2,-6.8 -62.1,-1.2 -10.9,2.9 -22.1,5.1 -33.2,7.4 -12.2,2.5 -24.6,3.7 -37,0.9 a 32.46,32.46 0 0 0 -15.8,0.3 c -30.8,7.2 -61.8,14.1 -92.5,21.6 -11.2,2.7 -22,6.8 -32.9,10.6 -3.6,1.2 -6.7,3.6 -10.2,5.2 -5.8,2.7 -12,4.6 -17.6,7.7 -9.6,5.2 -18.8,11.1 -28.2,16.6 a 42.72,42.72 0 0 1 -8.6,4.2 c -3.4,1.1 -8.7,-1.4 -9.4,-4 -1,-3.8 2,-5.2 4.4,-7 a 4.13,4.13 0 0 1 1.1,-0.7 c 10.4,-6.4 20.6,-13.1 31.1,-19.2 10.7,-6.2 19,-16.1 31.5,-19.4 1.4,-0.4 2.5,-1.6 3.9,-2.3 10.1,-5.5 19.5,-12.5 30.9,-15.4 7.9,-2 15.5,-5 23.3,-7.2 11.7,-3.3 23.5,-6.5 35.4,-9.2 10.5,-2.4 20.8,-5 30.5,-9.9 a 20.12,20.12 0 0 1 6.7,-2.1 c 4.3,-0.4 7.7,-2.3 11,-4.9 4.2,-3.3 8.4,-6.6 12.6,-10 a 49.28,49.28 0 0 0 3.9,-4 c -0.7,-1 -1.1,-1.9 -1.4,-1.9 -4.3,0.3 -7.6,-2.4 -11.3,-3.8 -5.9,-2.2 -12,-3.6 -18.2,-2.3 a 140.52,140.52 0 0 0 -15.3,4.5 c -12.8,4.2 -25.6,8.4 -38.3,12.9 -15.5,5.5 -30.8,11.8 -46.4,16.8 -12.7,4.1 -25,3.2 -35.1,-7 -5.1,-5.1 -5.4,-7.7 -1.6,-14.1 5.1,-8.6 12.4,-14.5 21.3,-18.8 10.4,-5.1 20.5,-10.6 30.6,-16.2 9.5,-5.3 19,-10.8 28.3,-16.4 4,-2.4 8.2,-4.8 11.6,-8 2.8,-2.7 4.7,-6.5 6.4,-10.1 0.6,-1.3 -0.2,-3.8 -1.2,-5.1 -1.4,-1.9 -3.3,-0.8 -5.1,0.4 -6,4 -12.2,3.6 -18.1,-0.2 -7.1,-4.6 -8.2,-13.1 -2.4,-19.3 2,-2.1 4.8,-3.5 7.4,-4.8 5.2,-2.5 10.6,-4.7 15.8,-7.1 2.5,-1.2 5.3,-2.6 4.3,-6.2 -1,-3.4 -4,-2.7 -6.5,-2.4 -3.4,0.5 -6.7,1.2 -10.1,1.8 -6.9,1.3 -10.6,-1.5 -11.3,-8.6 -0.7,-6.8 2.3,-12.2 7.4,-16.2 a 45.93,45.93 0 0 1 10.3,-6.5 c 8,-3.4 11.9,-9 11.1,-17.8 a 6.76,6.76 0 0 0 -0.4,-1.5 c -3.5,-2 -7,-1.5 -10.7,0.4 a 144.76,144.76 0 0 1 -15.3,6.3 c -7.1,2.5 -14.3,4.4 -21.3,6.9 a 117.89,117.89 0 0 1 -28.1,6.3 88.05,88.05 0 0 1 -15.4,-0.3 c -4.3,-0.3 -7.2,-2.9 -7.9,-6.4 -0.8,-4.2 1.9,-6.4 5,-8.1 3.4,-1.8 7,-3.2 10.5,-4.8 1.8,-0.8 3.5,-1.8 5.3,-2.7 -2.5,-1.1 -4.8,-0.8 -6.6,-1.6 -3.1,-1.4 -5.6,-1 -8.5,0.5 -4.4,2.2 -8.7,1.8 -12.5,-1.6 -2.6,-2.4 -5.4,-2.6 -8.9,-1.8 -5,1.1 -10.2,1.2 -15.3,1.5 -3.2,0.1 -6.3,-1 -7,-4.4 -1.1,-5 -4.6,-5.8 -8.7,-5.6 -3.4,0.2 -6.8,0.9 -10.1,1.4 a 55,55 0 0 1 -6.9,1.1 c -5.8,0.1 -8.7,-2.2 -10.2,-7.7 -0.6,-2.1 -0.7,-4.3 -1.4,-6.3 -1.2,-3.4 -2.7,-4.3 -6.4,-3.3 a 98.92,98.92 0 0 0 -10.9,3.5 c -15.3,6.2 -30.4,12.8 -45.8,18.6 -6.1,2.3 -12.9,3 -19.4,4.4 -1.2,0.3 -2.5,0.5 -3.8,0.8 -3.500002,0.6 -7.100002,1.9 -10.600002,1.7 -16.1,-0.7 -27.8,7.3 -37.8,18.6 -2.9,3.3 -2.8,6.3 -0.5,10 a 10.79,10.79 0 0 0 7,5.1 c 11.2,3 22.5,2.7 33.7,0.6 6.300002,-1.2 12.600002,-2.6 18.900002,-3.9 2.5,-0.5 4.2,0.4 5,2.8 a 3.52,3.52 0 0 1 -2.2,4.7 55.39,55.39 0 0 1 -9.5,3.8 c -9.500002,2.4 -19.100002,4.9 -28.800002,6.6 -10.1,1.8 -20.3,3.6 -30.5,4 -12.5,0.5 -20.7,-6.4 -24.2,-18 -1.7,-5.5 -0.4,-10 3.2,-14.2 3.3,-3.7 6.6,-7.4 9.6,-11.2 a 54.91,54.91 0 0 1 15.3,-13.5 c 8.4,-5.1 16.3,-11.2 22.6,-18.9 2.6,-3.2 5.3,-4.9 9.7,-5 a 12.83,12.83 0 0 0 12.4,-8.7 c 1.9,-4.8 0.5,-8.1 -4.1,-10.5 a 8.71,8.71 0 0 1 -3.7,-3.1 c -3.8,-6.5 -5,-7.2 -12.1,-5.1 -7.6,2.3 -15.1,4.8 -22.6,7.2 -4.5,1.4 -5.6,1 -7.8,-3 a 41.34,41.34 0 0 1 -2.1,-4.7 9,9 0 0 1 2.1,-1.9 c 12.1,-5.4 23.9,-11.9 36.5,-15.8 14.6,-4.6 28.000002,-11.6 42.400002,-16.6 3.5,-1.2 6.5,-2.1 10.4,-0.8 6.9,2.2 12.4,-2.2 12.9,-9.9 -2.8,-2.1 -6.2,-1.6 -9.2,-1.1 -17.1,2.9 -34.2,5.5 -50.500002,11.6 -2.7,1 -5.1,1.1 -6.9,-1.4 -1.8,-2.5 -1.1,-5.1 1.1,-6.9 a 108.25,108.25 0 0 1 10.5,-7.2 c 5,-3.2 10.900002,-5.5 15.100002,-9.5 a 77.15,77.15 0 0 1 30.1,-17.9 c 27.1,-8.6 53.8,-18.6 81.5,-25.4 6.6,-1.6 8.6,-7.7 4,-12.7 a 10.86,10.86 0 0 0 -6,-3.3 c -5,-0.9 -8.6,-3.4 -11.8,-7.1 -8,-9.4 -18.5,-12.7 -30.5,-11.3 -8.5,1 -16.9,2.9 -25.4,3.7 -4.8,0.4 -10.2,0.5 -14.4,-1.3 a 29.15,29.15 0 0 0 -19.3,-1.5 c -11.2,2.6 -22.600002,5.2 -34.000002,6.7 a 87.82,87.82 0 0 1 -22.9,-0.4 c -7.4,-1 -9.3,-5 -7,-12 2.3,-7 5,-13.6 7.9,-20.3 0.9,-2.1 2.5,-4.6 4.4,-5.3 6.7,-2.7 11.7,-7.6 17.4,-11.6 1.5,-1.1 3.5,-1.5 5.3,-2.2 10.2,-3.7 20.600002,-7.2 30.700002,-11.2 13.9,-5.5 27.6,-11.7 42.3,-14.7 4.4,-0.9 8.8,-1.9 13.2,-2.5 5.2,-0.7 9.7,1.2 13.4,4.9 4.6,4.6 4.7,9.2 -0.4,13.1 a 48.65,48.65 0 0 1 -12.8,7.1 c -11.5,4 -23.2,7.6 -34.9,10.8 -17.1,4.8 -33.2,12.5 -50.600002,16.6 -3.7,0.9 -6.9,4.6 -10,7.4 -0.8,0.7 -0.4,2.7 -0.5,4.7 13.6,0 26.600002,1.3 39.400002,-2.2 6.8,-1.9 14.6,-2.6 18.5,-10.4 0.9,-1.8 3.6,-2.9 5.7,-4 2.6,-1.4 5.5,-2.4 8.1,-3.8 6.6,-3.5 13.5,-6.6 19.7,-10.7 a 52,52 0 0 1 21.3,-8.5 c 1.4,-0.2 2.8,-0.5 4.4,-0.8 0,-6.4 0.3,-12.4 -0.1,-18.3 -0.4,-6.7 -3.3,-13.2 -1,-20.1 a 38.71,38.71 0 0 0 -16,-3.6 15.82,15.82 0 0 1 -6.2,-0.9 c -3.6,-1.6 -4.4,-5.4 -1.5,-7.7 4.6,-3.5 6.8,-8.1 8.2,-13.4 0.9,-3.4 2.9,-6.2 6.3,-6.7 8,-1.3 14.1,-5.7 20.2,-10.5 4.4,-3.4 9.3,-5 15,-3.8 5.7,1.2 7.4,0.1 8.6,-5.4 a 33.86,33.86 0 0 0 0.5,-6.4 c 0.2,-4 0.3,-8 0.5,-13 -1.4,-0.7 -3.5,-2.5 -5.9,-2.9 a 35,35 0 0 0 -10.7,-0.4 c -8.7,1.3 -17.2,3.2 -25.9,4.8 -5.1,0.9 -6.9,-0.7 -5.9,-5.9 a 58.24,58.24 0 0 1 3.3,-11 22.64,22.64 0 0 1 14,-13.2 c 8.1,-2.9 15.8,-6.6 23.9,-9.4 8.7,-3.1 17.4,-5.9 26.3,-8.2 5.6,-1.4 11.1,-2.3 15.8,-6.3 2.5,-2.1 6.1,-3.2 9.3,-4.1 4.3,-1.2 8.8,-1.7 13.2,-2.8 a 121.83,121.83 0 0 0 15.3,-4.6 c 6.7,-2.7 13,-6.6 19.9,-8.9 16.8,-5.7 33.9,-10.5 50.8,-16.1 22.9,-7.7 46.9,-12 69.3,-21.2 3.5,-1.5 7.4,-1.9 11.1,-3 7.4,-2.1 14.8,-4.2 22.1,-6.5 12.7,-3.9 25,-9.1 38.3,-10.6 9.2,-1.1 17.7,-4 23.9,-11 4,-4.4 8.8,-6.5 14.4,-7.8 10,-2.2 20.1,-4.4 30.1,-6.7 15.2,-3.6 30.7,-6.1 45.1,-12.4 a 31.21,31.21 0 0 0 3.5,-2 13.43,13.43 0 0 0 -7.2,-1.1 c -9.8,1 -19.6,2.1 -29.4,3 -5.5,0.5 -11.1,0.6 -16.6,0.8 -1,0 -2.1,-0.6 -4,-1.2 13.6,-8.6 28.3,-11.5 43,-15.3 -2,-3.9 -4.7,-3.7 -7.6,-3.3 -13.8,1.8 -27.6,3.6 -41.4,5.3 a 70.49,70.49 0 0 1 -10.3,0.3 3.42,3.42 0 0 1 -2.8,-1.9 c -0.2,-0.9 0.6,-2.4 1.5,-3.2 a 11.34,11.34 0 0 1 3.9,-2.1 c 5.9,-1.9 11.8,-3.8 17.8,-5.3 12.7,-3.1 25.4,-5.9 38.1,-8.9 5.2,-1.2 10.1,-2.9 15.6,-3.1 3.6,-0.2 8.1,-1.3 10.3,-5.7 -4.8,0 -9.2,0.4 -13.6,-0.1 -6.5,-0.7 -12.7,0.4 -19,1.7 -8,1.6 -16,3.4 -24.1,3.7 a 215.17,215.17 0 0 0 -33.1,3.9 c -2.6,0.5 -5.3,0.1 -8.5,0.1 0.5,-1.9 0.5,-3.4 1.1,-3.8 a 17.33,17.33 0 0 1 5.7,-2.6 c 5.6,-1.4 11.4,-2.2 16.9,-3.7 7.2,-2 14.2,-4.7 21.4,-6.6 13.6,-3.6 27.2,-7.6 41.4,-8.9 6.1,-0.6 12.2,-2.3 18.2,-3.9 10.4,-2.7 20.5,-6.1 31,-8.4 29.7,-6.5 59.4,-13 87.3,-25.5 3.3,-1.5 6.6,-2.7 10.5,-1.2 1.3,0.5 4.2,-0.6 4.8,-1.7 a 11.45,11.45 0 0 0 0.8,-6.6 c -0.5,-2.4 -2.8,-3 -5.1,-2.7 -8.3,1.2 -13.9,-2.9 -18.4,-9.3 -1.1,-1.6 -2.3,-3.1 -3.5,-4.6 a 23.72,23.72 0 0 1 -5,-18.1 124.4,124.4 0 0 1 3.7,-16.9 c 1.4,-5.2 3.4,-10.2 5,-15.2 2.3,-7.2 1.2,-9.3 -6.1,-9.5 a 77.1,77.1 0 0 0 -15.9,1.4 c -8.2,1.5 -16.3,3.7 -24.4,5.5 -50.2,10.9 -100.4,21.5 -150.5,32.8 -24.8,5.6 -49.3,12.7 -74,18.8 -3.8,0.9 -8,0.6 -12,0.4 -2.1,-0.1 -4.1,-0.9 -4.6,-3.7 a 5.91,5.91 0 0 1 2.5,-6.1 c 6.1,-4.5 12.5,-8.1 20,-9.8 a 127.76,127.76 0 0 0 20.3,-5.9 73.16,73.16 0 0 1 33.3,-5.2 100.93,100.93 0 0 0 30,-2.3 c 32.1,-7.6 64.1,-15.1 96.1,-23.1 15.7,-3.9 32.1,-5.5 47.3,-11.5 1.4,-0.5 3,-0.4 4.4,-0.7 l 32.1,-6 c 5.9,-1.1 11.7,-2 17.6,-2.9 2.4,-0.3 4.6,-0.4 5.4,-4.2 -13.1,2.1 -25.7,4.1 -38.3,6.2 -12.6,2.1 -24.9,3.9 -37.4,6 -12.5,2.1 -24.8,4.4 -37.1,6.6 -0.2,-0.5 -0.3,-1.1 -0.5,-1.6 2,-0.9 3.9,-2.2 6,-2.7 6.4,-1.7 12.9,-3.3 19.3,-4.7 q 27.6,-6 55.2,-11.8 c 14.4,-3.1 28.9,-5.8 43.3,-9.2 5.5,-1.3 10.6,-4.4 15.9,-6.6 5.1,-2.1 10.2,-4.6 15.5,-6.1 12.9,-3.6 26.2,-3.9 39.5,-4.2 11.8,-0.2 23.6,-0.2 35.3,-1.1 9.5,-0.8 19.2,-1.1 28,-6.1 a 18.29,18.29 0 0 1 6.2,-1.6 c 17.4,-2.2 34.8,-4.4 52.3,-6.3 20.40003,-2.3 40.90003,-4 60.90003,-9.2 2,-0.5 4.4,-0.9 5.9,-2.1 a 113.7,113.7 0 0 0 8.7,-8.3 c 6.6,-6.8 12.4,-7.9 20.7,-3.7 a 75.86,75.86 0 0 1 10.9,6.7 26.25,26.25 0 0 0 16.2,5.1 c 7.1,0 14.1,0.2 21.2,-0.1 4.5,-0.1 9.1,-0.2 13.3,-1.5 7.1,-2.2 14.3,-2.4 21.6,-2.6 3.2,0 6.4,-0.5 9.6,-0.7 6.8,-0.5 13.7,-1.7 20.5,-1.2 a 247.41,247.41 0 0 0 54.4,-2 l 29.2,-4.2 a 33.23,33.23 0 0 0 6.3,-1.1 19.67,19.67 0 0 1 12,-0.1 c 8.9,2.3 17.8,2 26.8,1 a 164.75,164.75 0 0 1 19.9,-0.6 c 4.7,0.1 9.4,1 14.1,1.2 18.2,0.5 36.4,0.5 54.6,1.4 10.8,0.5 20.8,-0.5 29.8,-7.1 2,-1.5 4.6,-2.2 6.9,-3.3 h 11.6 c 2.2,2.6 5.1,1.5 7.7,1.5 6.2,0 12.5,-0.6 18.6,0.2 8.2,1.2 16.3,3.7 24.5,5.2 7.1,1.3 14.4,2.8 21.5,2.7 5.1,-0.1 8.6,0.9 11.1,5.9 4.7,-3.9 9.5,-4 14.7,-2 6.8,2.6 13.8,4.6 20.7,6.8 2.6,0.8 5.3,1.6 8,2.3 3.2,0.9 6.5,2.2 9.8,2.4 21.2,1.2 42.3,2.2 63.5,3.2 6,0.3 9.6,-2 12.1,-7.3 2.2,-4.7 9.3,-5.7 11.9,-1.1 2.5,4.3 5.8,5 10.1,5.1 10.3,0.4 20.5,1.2 30.7,2 8.1,0.6 16.2,1.7 24.3,2.4 a 80.89,80.89 0 0 0 25.5,-1.6 c 7.2,-1.7 10.9,-0.1 13.9,5.3 -4.3,1.9 -6.5,2 -12.4,1.5 -10,-0.8 -20.1,-1.8 -30.1,-1.7 -16.3,0.1 -32.5,0.6 -48.7,-1.9 -2.9,-0.5 -5.5,0 -6.4,4.5 2.6,1.2 5.1,2.7 7.9,3.5 5.8,1.6 11.8,2.3 17.5,4.1 13.9,4.2 27.9,8.4 42.5,9.3 9.8,0.6 19,5.4 29,4.9 1.4,-0.1 2.8,0.9 4.3,1.3 10.2,3.3 20.3,6.7 31.3,6 13,-0.8 26.1,-0.9 39.1,-1.9 10.6,-0.8 21.6,-1.3 30.1,-9.5 -0.4,-3.2 -3.3,-3.6 -5.6,-4.2 q -14.1,-3.15 -28.2,-5.7 c -3.5,-0.6 -6.6,-1.4 -8.9,-4.4 a 19.6,19.6 0 0 0 -13.1,-7.5 74.12,74.12 0 0 0 -11.5,-0.8 c -9.3,0 -18.4,-1.4 -26.9,-5.3 a 58.37,58.37 0 0 0 -17.8,-5 21.9,21.9 0 0 1 -5.6,-1.4 c -1,-0.4 -1.7,-1.4 -2.6,-2.1 0.6,-0.7 0.9,-1.2 1.2,-1.2 a 8.19,8.19 0 0 1 3.1,-0.3 c 8.5,1.7 17.1,0.8 25.6,0.1 a 45.19,45.19 0 0 1 9,0.3 c 7.6,0.9 15.3,1.9 22.9,3.2 21.1,3.5 42.1,7.6 63.2,10.5 a 678.08,678.08 0 0 1 76,15.6 c 10,2.6 15.6,8.4 16.9,18.5 a 64.93,64.93 0 0 1 0.5,7.7 c -0.1,9.2 -3.6,13.6 -12.9,14.3 -11.7,0.9 -23.3,4.1 -35.1,2.8 -2.3,-0.3 -4.7,0 -6,3 1,0.8 1.7,1.9 2.8,2.3 11.4,4.3 22.8,8.7 35,10.3 4.2,0.5 8.1,0.1 11.5,-2.6 5.6,-4.4 12,-5.3 18.8,-4.1 4.2,0.8 8.3,1.9 12.5,2.7 13.1,2.4 26.1,4.9 39.4,0.9 2.3,-0.7 5.1,-0.4 7.6,-0.1 26.2,2.9 52.4,5.6 78.5,8.8 a 205.64,205.64 0 0 1 65.1,18.9 c 12,5.8 21.4,15 30.1,24.8 6.5,7.3 0.8,15.8 -5.8,16.9 a 36.49,36.49 0 0 1 -11.4,-0.4 c -3.6,-0.6 -7,-2 -10.5,-2.9 -31.4,-8.3 -63.3,-14.8 -94.1,-25.6 -8.8,-3.1 -18.3,-4.5 -27.5,-6.1 a 18.87,18.87 0 0 0 -10,0.8 c -6,2.3 -6.9,7.8 -2.1,12.1 a 19.66,19.66 0 0 0 6.6,3.8 c 13.4,5.6 26.9,11 40.3,16.7 a 81.5,81.5 0 0 1 11.3,6 4.54,4.54 0 0 1 1.8,3.6 c -0.2,1.1 -1.9,2 -3,2.9 a 5.41,5.41 0 0 1 -1.9,0.3 65,65 0 0 1 -26.7,-1.3 43.72,43.72 0 0 0 -17.8,-1 10.75,10.75 0 0 0 2.3,1.1 q 36.45,5.85 72.9,11.6 c 9.9,1.6 19.9,3 30,2.3 2.4,-0.2 4.9,1 7.4,1.6 4.9,1.2 9.8,2.8 14.8,3.8 6.5,1.3 13.1,2.1 19.6,3.4 9,1.7 18,4.5 27.1,5.2 12.6,0.9 24.4,4.2 36.1,8.5 6.8,2.5 13.5,5.6 20.5,7.4 17.4,4.6 34.8,8.8 52.3,13 6.2,1.5 12.6,2.8 19.1,1.6 a 6.46,6.46 0 0 1 3.1,0.2 c 17.1,5.2 33.7,11.2 48.6,21.3 5.2,3.5 8.9,7.7 9.9,14.2 0.8,4.7 4,8.4 9.1,8.6 9.8,0.3 19.9,1.3 29.5,-0.3 a 117.76,117.76 0 0 1 31.9,-1.2 c 21.8,2.2 42.5,7.4 61.8,18 a 156.62,156.62 0 0 0 34.6,13.6 c 22.4,6 45.2,9.4 68.2,12.4 9.8,1.3 19.4,3.1 28,8.5 9.2,5.8 11.6,11.2 9,21.6 a 119.3,119.3 0 0 0 -2.4,11.9 c -1.4,9.9 -6.7,16 -16.6,17.9 a 108.74,108.74 0 0 1 -14,1.3 c -2.5,0.2 -5.3,0.6 -5.4,3.3 a 7.92,7.92 0 0 0 2.8,5.9 c 2.5,1.9 5.7,2.8 8.6,4.2 6.9,3.3 14.2,6.1 20.7,10 a 41.79,41.79 0 0 0 13.5,5.5 c 14.9,2.8 29.8,5.7 44.7,8.9 a 21.07,21.07 0 0 1 8.9,4.6 c 6.5,5.8 5,15.6 -3,19 a 25.11,25.11 0 0 1 -11.2,1.7 c -11.5,-0.8 -23,-2.1 -34.5,-3.3 -15.4,-1.5 -30.7,-2.9 -46.1,-0.6 a 225.87,225.87 0 0 1 -55.1,1.6 55.31,55.31 0 0 0 -11.5,0.3 c -2.3,0.3 -5.5,-0.3 -6.3,3.1 -0.5,2.4 2.6,7.2 5.2,8.2 a 30.07,30.07 0 0 0 4.9,1.4 133.31,133.31 0 0 0 13.9,2.1 59.08,59.08 0 0 0 13.3,-0.2 c 4.6,-0.7 9,-2.4 13.5,-3.7 4.8,-1.4 6.6,-0.7 10.2,4.2 -1.8,2.4 -3.7,4.8 -5.6,7.3 a 11.73,11.73 0 0 0 8.3,4.3 c 6.6,0.7 13.2,1.4 19.7,2.4 a 908.36,908.36 0 0 0 94.4,10.5 c 6.6,0.4 13.2,1.2 19.8,2.1 6.6,0.9 9.4,4 10.5,10.3 a 22.7,22.7 0 0 1 0.3,4.5 11.61,11.61 0 0 0 4.7,9.4 35,35 0 0 1 3,2.4 c 8.2,7.9 6.5,18.3 -4.1,22.7 -4.3,1.8 -9,2.5 -13.6,3.2 -4.9,0.7 -9.8,0.6 -14.7,0.9 -17.5,0.9 -35.1,1.9 -52.6,2.8 -6.2,0.3 -12.4,0.3 -18.5,1.1 -13.2,1.8 -26.4,2.8 -39.7,1.2 -2.2,-0.3 -4.6,0.5 -6.9,0.8 v 1.4 c 5.8,1.3 11.6,2.7 17.4,3.9 16.8,3.5 33.5,6.9 50.3,10.4 a 67.64,67.64 0 0 1 6.5,2 c -3.2,5 -7.2,3.9 -11,3.5 -24.9,-2.4 -49.9,-5 -74.8,-7.3 -16.8,-1.6 -33.7,-2.9 -50.6,-4.2 q -42,-3.15 -83.9,-6.1 a 12.19,12.19 0 0 0 -3.8,-0.1 c -1.1,0.3 -2.5,1.2 -2.7,2 -0.2,0.8 0.9,2.3 1.8,2.8 4,2 8.2,3.7 12.2,5.7 6.5,3.2 13.2,4.3 20.4,4.6 13,0.5 26,1.7 39,2.9 18.1,1.7 36.1,4.4 54.3,5.5 19,1.2 38,2.9 56.9,5.6 32,4.5 64,9.1 96,13.5 11,1.5 16,-1.6 19.8,-12.2 1.2,-3.2 3.1,-5.6 6.4,-6.7 8.2,-2.5 19.3,2.8 21.2,11.1 2.1,8.9 8.1,12.6 16.1,14.5 17.7,4.4 35.3,8.6 53,13.2 a 91.17,91.17 0 0 1 13.2,4.9 c 3.9,1.7 5.7,5.2 5.3,9.4 -0.4,4.2 -2.6,7.3 -6.7,8.6 a 43.56,43.56 0 0 1 -9.4,1.9 327,327 0 0 1 -69.2,-3 c -22.7,-3.3 -45.4,-6.4 -68,-9.6 a 35,35 0 0 1 -5.6,-1.3 c -2.7,-0.8 -4.5,-2.6 -4.1,-5.7 0.4,-2.8 2.6,-4 5.1,-4.1 a 70.91,70.91 0 0 1 10.3,0.3 c 9.2,0.9 18.3,2.3 27.5,3 6.1,0.5 12.3,0.1 18.4,0.1 a 4.42,4.42 0 0 0 -2.8,-1.4 c -14.5,-1.3 -29,-2.9 -43.5,-3.8 a 324.6,324.6 0 0 1 -47.1,-6.1 c -12.3,-2.7 -24.5,-6.2 -37,-8 -17.4,-2.5 -34.9,-3.7 -52.4,-5.4 -5.3,-0.5 -10.7,-0.9 -16,-0.9 a 10.36,10.36 0 0 0 -5.9,1.9 29.39,29.39 0 0 1 -14.1,5.6 c -1.8,0.3 -3.6,0.8 -5.6,1.3 0.2,1.3 0,2.3 0.4,2.9 2.3,3.4 2.6,6.1 -1.6,8.4 a 4.45,4.45 0 0 0 -1.4,3.8 c 1.1,3.1 2.1,6.9 4.4,8.9 8.2,7.1 16.8,14 25.6,20.3 3.9,2.8 8.8,4.4 13.4,5.9 7.5,2.5 15.1,4.5 22.7,6.5 a 126.17,126.17 0 0 0 16.2,3.5 11.15,11.15 0 0 0 7.2,-2 c 7.1,-5 14.7,-3.7 22.2,-1.9 3.1,0.7 5.1,3 4.3,6.1 -1.5,6.2 2.1,8.7 6.7,10.7 6.3,2.8 12.7,5.1 18.9,7.9 6.4,2.9 13,5.7 18.8,9.6 10.7,7.3 11.1,18.3 1.2,26.9 a 40.6,40.6 0 0 1 -8.6,5.5 100.31,100.31 0 0 1 -9.6,3.7 c -6.4,2.3 -7.4,4.5 -5.8,11.2 a 71.45,71.45 0 0 1 2.1,14.5 12.74,12.74 0 0 1 -2.8,8.2 c -6.4,7.5 -14.4,12 -24.7,11.2 -5.5,-0.4 -11.1,-0.8 -16.6,-1.3 a 28.67,28.67 0 0 1 -5.7,-1.1 153,153 0 0 1 -25,-9.9 c -9.7,-4.9 -19.9,-8.9 -31,-9.8 -4.5,-0.4 -7.9,1.4 -10.8,4.5 -5.4,5.7 -10.6,11.6 -16.2,17.1 -8.3,8.2 -18.1,10.9 -29.5,7.8 -2.9,-0.8 -5.8,-1.5 -8.7,-2.3 -8.5,-2.5 -16.3,-1.8 -23.6,3.8 -4.7,3.6 -5.5,7.6 -1,11.6 a 12.25,12.25 0 0 0 5.6,3 c 8.2,1.5 16.4,3.2 24.7,3.8 16.4,1.2 32.9,1.6 49.4,2.5 a 310.12,310.12 0 0 0 54.5,-1.6 c 10.2,-1.3 20.4,-2.2 30.7,-2.9 6.8,-0.5 12.8,1.9 16.6,7.8 3.1,4.9 7.5,6.8 13,6.7 6,-0.1 12,-0.4 18,-0.1 20.5,1.1 41.1,2.1 61.6,3.6 18.8,1.4 37.6,3.5 55.7,8.9 a 83.93,83.93 0 0 1 18.2,7.8 c 9.2,5.5 10.8,14.9 4.8,23.8 a 31.17,31.17 0 0 1 -3.2,4 c -7.7,7.5 -16.5,13.1 -27.2,15 -20.5,3.7 -40.2,10.1 -60,16.3 a 10.1,10.1 0 0 0 -3.9,2.2 c -2.1,1.9 -5.9,3.1 -4.5,6.9 1.4,3.8 4.9,2.5 7.8,2.4 9.4,-0.3 18.8,-1 28.2,-0.6 11.7,0.5 23.1,0 34.3,-3.5 a 25.37,25.37 0 0 1 8.2,-1.1 c 8.4,0.5 12.3,7.5 8.6,15 -2.7,5.4 -6.8,7.9 -12.9,7.6 -17.3,-0.8 -34.7,-1.5 -52,-2.1 -31.7,-1.1 -63.4,-2.6 -95,-2.8 -34.2,-0.2 -68.5,-1.5 -102.7,2.3 a 17.14,17.14 0 0 0 -5.5,1.4 c -1.2,0.6 -2.9,2.3 -2.7,2.9 a 6,6 0 0 0 3.2,3.4 c 2.3,1 5,1.2 7.5,1.8 13.9,3.4 27.8,6.9 41.8,10 8.3,1.8 16.8,3.2 25.3,4.2 a 170.69,170.69 0 0 0 40.4,-0.4 30.3,30.3 0 0 1 24.4,7.4 c 8.2,7.1 9.8,14 5.7,24.1 -0.8,1.9 -1.4,3.8 -2.5,6.6 3.9,0.7 6.9,1.6 10,1.8 13.5,0.7 27,1 40.4,1.8 a 49.45,49.45 0 0 1 13.8,2.5 c 7.3,2.8 9.8,9.6 7.1,16.9 -3,8.4 -10.1,13.1 -20,13.2 -14.4,0.1 -28.7,0.1 -43.1,0 -26.4,-0.3 -52,3.4 -76.4,14.3 a 34.16,34.16 0 0 1 -10.5,2.4 35.14,35.14 0 0 0 -20.2,8.9 c -3.2,2.8 -5.4,6.4 -4,10.8 3.6,11.8 4,24 4.7,36.2 a 65.48,65.48 0 0 0 1,8.9 c 1,5.1 3.9,8.3 9.4,8.9 14.9,1.6 29.7,3.6 44.6,5.1 12.6,1.3 25.2,1.9 37.8,3.2 17.9,1.8 35.7,4.4 53.8,4.2 8,-0.1 15.8,1.2 22.9,5.1 a 24.05,24.05 0 0 0 18,2.3 c 7.3,-1.8 14,0.1 20.3,3.7 5.4,3.1 7.6,7.9 6.6,14.1 -0.4,2.3 -1.1,4.6 -1.5,6.9 -0.7,4.4 -0.2,5.7 3.8,7.7 3.2,1.6 6.8,2.6 10.1,4 6.9,3 11.6,7.6 12.3,15.7 0.8,8.7 4.4,11.8 13.3,12.7 3.4,0.3 6.8,0.7 10.2,0.8 7,0.3 11.4,4.3 14.8,9.9 3.2,5.2 2.9,8.8 -1.2,13.4 -5.9,6.6 -13.3,10.3 -22.1,10.2 -20.8,-0.3 -41.6,-0.4 -62.3,-1.8 -26.5,-1.8 -52.9,-4.8 -79.3,-7.3 -10.4,-1 -20.9,-2.1 -31.2,-3.5 a 53.14,53.14 0 0 0 -21,1.1 66.28,66.28 0 0 1 -13.8,2.8 c -14.5,1 -29.1,1.7 -43.6,2.4 -23.5,1.3 -47,-0.7 -70.5,1.6 -18.2,1.8 -36.8,2.2 -55.1,-0.6 a 18.47,18.47 0 0 0 -3,0.2 c 1.1,4 2.1,7.6 3.1,11.3 1.5,5.5 5.2,8.1 10.8,8.4 2.4,0.1 4.7,0 7.1,0 8.8,0.2 17.6,0.3 26.3,0.8 21.1,1.4 42.3,3.8 63.4,4.4 41.4,1.3 82.3,6.6 123.3,12.1 21,2.9 42.1,4.9 63.1,7.2 11.7,1.3 23.4,2.4 35.2,3.4 12.3,1 24.3,4.8 36.8,4.6 3.5,0 7.1,1.5 10.6,2.2 8.4,1.6 10.8,8.9 14.1,15.2 a 3.65,3.65 0 0 1 -0.5,3.5 c -5.5,5.7 -10.9,11.9 -19.8,11.6 a 187.27,187.27 0 0 1 -21.1,-1.6 180.19,180.19 0 0 0 -31.1,-2.3 33.12,33.12 0 0 1 -7,-0.6 c -3.8,-0.6 -7.5,-1.5 -11.3,-2 -6.2,-0.9 -11.1,2.4 -11.9,7.9 -1,7.1 2.2,12.1 8.6,13.2 3.4,0.6 6.8,1.1 10.1,1.9 27.6,6.4 55.5,10.5 83.9,10.6 13.5,0.9 24.9,5.8 32,18.9 z m -2423.20003,16.6 c -3,1.6 -6,3.3 -9.1,4.6 -3.1,1.3 -6.7,1.8 -9.6,3.4 -2.6,1.4 -7.1,-1.2 -8.8,4.5 10.7,-1.8 19.9,-4.8 27.4,-12.1 a 1.2,1.2 0 0 0 0,-0.6 c 3.6,-1.2 3.6,-1.2 5.2,-4.3 l -1,-1 c -1.3,1.9 -2.7,3.7 -4.1,5.5 z m 123.3,112.2 c 3.8,3.3 3.8,3.3 8.5,0.2 h -8.7 a 13.14,13.14 0 0 1 4.4,-9.6 15.38,15.38 0 0 0 3.3,-4.7 c 1.2,-2.4 0,-4.2 -2.8,-4.3 a 12.08,12.08 0 0 0 -3.8,0.6 81.17,81.17 0 0 1 -17.1,4.5 c -8.4,1.1 -15.8,6.2 -22.7,11.3 -2.1,1.5 -4.2,3.5 -3.2,6.4 1,2.9 3.8,2.2 6.1,2.5 a 10.08,10.08 0 0 1 2.5,0.3 c 3.6,1.3 6.4,0 9.3,-2.3 5.7,-4.5 12.6,-6.2 19.8,-6.5 1.4,-0.3 2.9,1 4.4,1.6 z m 2135.70003,-199 c -0.6,-1 -0.7,-1.5 -1,-1.6 a 50.53,50.53 0 0 0 -5.5,-1.8 c -25.1,-7.4 -50.8,-11.9 -76.7,-15.2 -20.8,-2.6 -41.6,-5.2 -62.5,-7.3 -17.2,-1.7 -34.5,-3.2 -51.8,-3.6 -8.8,-0.2 -17.5,-0.5 -26.2,-1.5 a 116.09,116.09 0 0 0 -16.7,-0.5 c -3.2,0 -5.1,2.7 -3.4,4.4 2.6,2.9 4.6,6.7 9.1,7.5 14.1,2.4 28.2,5.1 42.2,7.6 a 110.77,110.77 0 0 0 15.2,1.9 c 18.8,0.9 37.5,1.5 56.3,2.2 1.9,0.1 3.8,0.4 5.7,0.6 7.8,1 15.7,2.4 23.5,3 13.4,1.1 26.8,1.7 40.2,2.5 a 22.76,22.76 0 0 0 2.6,0.2 c 6.2,0.5 12.3,0.8 18.5,1.4 q 8.55,0.75 17.1,1.8 c 4.6,0.5 9,1.4 13.4,-1.6 z m -179.9,-738.3 c 0.1,-0.5 0.3,-1 0.4,-1.5 -11.6,-1.4 -23.3,-2.4 -34.9,-4.3 -10.6,-1.7 -21.8,-2 -31.1,-8.6 -0.6,-0.4 -1.7,-0.2 -2.5,-0.3 -6.8,-1 -13.5,-2.1 -20.3,-3 -1.7,-0.2 -3.5,-0.7 -5,-0.2 -4.9,1.8 -9.7,0.9 -14.6,0.2 -8.3,-1.2 -16.5,-2.2 -24.8,-3.1 -1.2,-0.1 -2.5,0.3 -5.1,0.7 7,3.6 12.6,6.6 18.4,9.3 a 19.88,19.88 0 0 0 6.8,1.6 c 25.5,2.8 50.9,5.5 76.4,8.2 a 4.88,4.88 0 0 0 2.4,-0.4 c 4.3,-2.1 8.7,-1.2 13.2,-0.7 7.1,0.9 13.9,1.5 20.7,2.1 z m -2378.90003,208.5 c 9.6,-1.4 18.7,-3.8 26.3,-9.6 4.1,-3.2 8.2,-5 13.5,-4.9 5.3,0.1 9,-2.8 11.1,-7.7 -18.7,4 -37.4,7.2 -50.9,22.2 z m 732.1,-325.2 c -1.8,-0.1 -2.6,-0.3 -3.4,-0.3 -4.1,0.3 -4.1,4.2 -5.9,6.6 -4.5,6 -4.4,12.7 -3.2,19.5 0.8,4.4 2.1,4.9 7.6,4.4 1.3,-3.7 2.8,-7.2 2,-11.6 a 33,33 0 0 1 0.2,-9.4 c 0.5,-2.8 1.7,-5.6 2.7,-9.2 z m -181.2,968.5 c -0.1,-0.5 -0.1,-1.6 -0.3,-2.6 -1,-6.1 -3.5,-7.2 -8.7,-4.3 -5.4,3 -7.3,8.1 -8.1,13.7 -0.5,3.2 1.1,5 4,5.4 a 11.83,11.83 0 0 0 13.1,-12.2 z M 2239.9013,870.902 c 0.1,-0.6 0.1,-1.2 0.2,-1.8 -17.7,-7.5 -36.5,-8.1 -55.8,-9.4 0.7,1 0.8,1.5 1.1,1.6 6.5,2 13,4 19.5,5.9 a 6.71,6.71 0 0 0 3.1,0.3 c 5.2,-1.3 10.1,0.2 15.2,1 5.5,1 11.1,1.6 16.7,2.4 z m -733.7,517.4 c -3.5,6.5 -2.5,9.5 3.8,12.7 3.1,-1.7 5.4,-3.9 4,-7.8 -2.5,-1.6 -5,-3.1 -7.8,-4.9 z m -779.30003,-393.5 c 1.3,-5 1.3,-5 -4.9,-7.5 -3.2,5.5 -2.1,7.1 4.9,7.5 z m 299.00003,-189 c -0.5,3.5 0.5,6 3.9,7.2 2.1,0.7 3.2,-0.4 3.8,-3.4 -4.2,1.8 -2.5,-6.4 -7.7,-3.8 z m 1706,549.2 c -2.8,-6.3 -4.5,-6.6 -8.9,-2 2.5,2.1 4.9,4 8.9,2 z m -2381.50003,-57 c -6.1,5.3 -6.1,8.3 0,11.1 z m -251.800002,130.6 c 4.600002,2.8 4.600002,2.8 7.300002,-4.5 -3.7,-0.4 -6.200002,0.8 -7.300002,4.5 z m 966.200032,-533.7 c -3.7,2.1 -6.3,3.6 -8.8,5 0.2,0.4 0.3,0.9 0.5,1.3 2.6,-0.2 5.2,-0.5 8,-0.7 0.1,-1.6 0.1,-2.8 0.3,-5.6 z m -105.10003,-6.3 c 2.9,-0.6 5.8,-1.3 7.9,-4.2 -4.4,-1.1 -6.5,0.9 -7.9,4.2 z m 873.70003,1146.4 c 3.3,4 4.7,2.9 6.3,-0.3 -2,0.1 -3.6,0.2 -6.3,0.3 z m -1013.00003,-851.7 -1.8,-0.3 c -0.1,1.2 -0.3,2.4 -0.4,3.6 0.5,0.1 0.9,0.1 1.4,0.2 0.2,-1.2 0.5,-2.3 0.8,-3.5 z m -439.5,1163.8 c -6.4,-6.2 -6.7,-9.2 -1.5,-16.5 20.4,-28.8 46.9,-50.2 78.8,-65.1 3.1,-1.4 6.2,-3 9.4,-4.1 2.3,-0.8 4.8,-1.1 7.6,-1.8 0.5,3.9 -1.8,5.1 -3.9,6.3 -6.7,3.8 -13.3,7.8 -20.1,11.4 -18.8,10 -33.4,24.4 -45.3,41.8 -0.8,1.2 -1.6,2.5 -2.3,3.8 -3.2,5.9 -2.9,7.1 2.3,11.3 0.8,0.6 1.6,1.3 2.7,2.1 -3.4,4.1 -7.7,6.4 -12.3,8.3 -1.7,0.7 -3.4,1.6 -5,2.4 -3.5,0.1 -7,0.1 -10.4,0.1 z"
     style="fill:#ffffff;fill-opacity:1"
     id="path1" />
  <path
     d="m 2266.6013,2182.402 c 8.1,-1.6 16.2,-3.5 24.4,-4.6 19.9,-2.7 39.9,-5.4 59.9,-7.2 12.8,-1.1 25.7,-0.6 38.5,-0.8 h 0.6 c 2.1,0.2 4.8,0.1 4.8,3 0,2.9 -2.7,2.8 -4.8,3 -4.9,0.6 -9.8,1.2 -14.6,1.7 -0.4,0 -0.9,0.1 -1.3,0.1 -3.5,0 -3.8,6 -7.7,4.6 -4.2,-1.6 -5.5,2.4 -8.3,3.5 -2.8,1.1 -5.5,3.2 -8,5.2 a 5.33,5.33 0 0 0 -1.5,3.2 c -0.4,3.6 -0.7,7.2 -0.8,10.9 -0.3,9.3 4.7,16.2 13.8,18.3 8.8,2.1 17.7,3.3 26.7,0.7 7.2,-2.1 13.4,-5.4 17,-12.6 a 11.65,11.65 0 0 1 4.6,-5.2 11.14,11.14 0 0 1 7.2,-1 c 2.6,0.6 3,3.5 2.7,5.9 -0.7,6.5 -3.1,12 -9.6,14.7 -12,5 -24.1,10 -36.1,15.1 -13.5,5.6 -27.8,8.3 -42.2,10.9 -6.7,1.2 -13.2,0.2 -19.6,-2 -9.5,-3.3 -12.9,-10.1 -10,-19.7 a 27,27 0 0 1 10.2,-14.5 c 8.8,-6.4 13.2,-16.2 19.3,-24.6 3,-4.2 1.7,-6.6 -3.4,-7.7 a 114.05,114.05 0 0 0 -34.5,-1.5 c -8.9,0.9 -17.9,1.6 -26.8,2.4 a 6.07,6.07 0 0 1 -0.5,-1.8 z m -609.4,-88 c -3.8,1.3 -7.4,2.9 -11.3,3.8 -16.1,3.6 -32.1,7.1 -48.2,10.5 -9.6,2.1 -19.4,3.5 -28.9,6 -9,2.4 -18.3,4.3 -26,10.3 -1,0.8 -3.3,0.4 -4.8,0 a 10.11,10.11 0 0 0 -11.5,3.5 22.75,22.75 0 0 1 -13.7,7.8 c -10.3,2 -20.6,3.8 -30.9,5.5 -13.1,2.2 -26.1,4.6 -39.3,6.3 -29.1,3.8 -58.2,7.3 -87.2,10.8 -3.8,0.5 -7.7,0.1 -11.5,0 -2.4,-0.1 -4.2,-1.1 -4.2,-3.8 0,-2.5 1.7,-3 3.8,-3.4 q 63.75,-11.4 127.6,-22.9 a 74.68,74.68 0 0 0 28.5,-10.9 c 5,-3.3 11.5,-4.4 17.5,-5.7 14.2,-3.1 28.5,-5.7 42.8,-8.6 a 15.55,15.55 0 0 0 3.1,-0.7 c 13.4,-6.2 27.9,-6 42.1,-7.2 14.5,-1.2 29,-2.1 43.5,-3 2.7,-0.2 5.5,0 8.3,0 a 12.24,12.24 0 0 0 0.3,1.7 z m 553.1,194.2 c -1.9,-3.1 -3.4,-5.9 -5.2,-8.4 -1.7,-2.2 -4.2,-2.8 -6.9,-2.3 -2.3,0.4 -4.6,0.9 -6.9,1.4 -5.4,1.2 -8.2,0.3 -10.6,-3.4 -2.4,-3.7 -2.7,-9.6 0.1,-12.6 a 47.94,47.94 0 0 1 23.9,-14.1 7.39,7.39 0 0 1 4.7,1.2 80.65,80.65 0 0 0 26.8,10.1 c 7.9,1.4 11.4,6.1 11.1,14 -0.3,7.9 -0.6,15.8 -1.4,23.7 -0.8,7.3 -3.3,14.2 -8.4,19.7 -5.4,5.8 -12.6,6.9 -19,2.2 -8.1,-6 -13.5,-14.2 -17.1,-23.6 -1.4,-3.6 -0.1,-5.6 3.6,-6.8 a 47.24,47.24 0 0 1 5.3,-1.1 z m -1319.60003,-99 c -2.2,1.3 -3.6,2.4 -5.2,3.2 -12.5,6.5 -25.1,13 -37.5,19.5 -15.8,8.3 -30.5,18.3 -41.9,32.3 a 24.4,24.4 0 0 0 -4.4,9 c -1.3,4.3 0.2,6.2 4.5,7.6 a 1.27,1.27 0 0 0 0.6,0.1 c 2.4,0.7 5.3,0.5 5.9,4 a 9.17,9.17 0 0 1 -4.4,9.3 26.05,26.05 0 0 1 -7.2,2.7 c -15.4,2.6 -30.8,5.1 -46.2,7.6 a 34.2,34.2 0 0 1 -4.5,0.4 c -4.6,-0.1 -6.5,-3 -4.7,-7.2 2.1,-4.9 6.9,-6.5 11.2,-5.8 11.3,1.7 16.7,-5.7 22.3,-13 a 14,14 0 0 0 1,-1.6 c 7.6,-17.1 21.3,-28.7 36.3,-38.8 15.1,-10.3 31.8,-17.4 48.9,-23.9 5.4,-2 10.9,-3.9 16.3,-5.8 2.8,-1.1 5.4,-1.8 9,0.4 z m -505.5,-1193.2 c -0.7,4 -4.2,4.5 -7,5.5 -11.5,4.1 -23,7.9 -34.5,12.1 -8.2,3 -16.4,6.1 -24.5,9.5 -5.4,2.2 -10.4,2.6 -14.9,-1.5 -3.5,-3.1 -3.1,-7 0.9,-9.5 a 19.57,19.57 0 0 1 4.7,-2 c 16.4,-4.7 32.8,-9.6 49.3,-14.1 7.7,-2.1 19.9,-1.8 26,0 z m 475.8,1259.9 c 1.7,-1.5 2.2,-2.3 2.9,-2.5 15.7,-3.8 31.1,-8.8 47.1,-11.6 23.4,-4 46.5,-9.3 69.7,-14.1 2.6,-0.5 5.2,-0.9 8.4,-1.4 -0.4,3.4 -2.1,4.1 -3.9,4.6 -18.8,4.8 -37.7,9.6 -56.6,14.2 -8.9,2.2 -17.8,4.5 -26.8,6.2 -10.7,2 -21.5,3.4 -32.2,4.9 -2.4,0.4 -4.9,-0.1 -8.6,-0.3 z m 2040.50003,-179.2 c -2,-0.9 -3.2,-1.3 -4.3,-1.8 2.4,-6.5 6.1,-8.8 12.4,-7.7 9.7,1.7 13.9,6.7 12.6,15.8 a 12.76,12.76 0 0 1 -3.8,7 c -5.7,5 -15.7,4.4 -21.2,-0.8 -3.7,-3.5 -3.7,-5.4 0.1,-8.9 1.1,-1.1 2.3,-2 4.2,-3.6 z"
     style="fill:#ffffff;fill-opacity:1"
     id="path2" />
</svg>
