<?xml version="1.0" encoding="UTF-8" standalone="no"?>
<svg
   version="1.1"
   width="50"
   height="50"
   viewBox="0 0 50.000001 50.000001"
   xml:space="preserve"
   id="svg2"
   sodipodi:docname="circle.svg"
   inkscape:version="1.3.2 (091e20e, 2023-11-25, custom)"
   xmlns:inkscape="http://www.inkscape.org/namespaces/inkscape"
   xmlns:sodipodi="http://sodipodi.sourceforge.net/DTD/sodipodi-0.dtd"
   xmlns="http://www.w3.org/2000/svg"
   xmlns:svg="http://www.w3.org/2000/svg"><sodipodi:namedview
   id="namedview2"
   pagecolor="#ffffff"
   bordercolor="#000000"
   borderopacity="0.25"
   inkscape:showpageshadow="2"
   inkscape:pageopacity="0.0"
   inkscape:pagecheckerboard="0"
   inkscape:deskcolor="#d1d1d1"
   inkscape:lockguides="false"
   inkscape:zoom="5.7555555"
   inkscape:cx="-16.853282"
   inkscape:cy="62.982626"
   inkscape:window-width="1920"
   inkscape:window-height="991"
   inkscape:window-x="-9"
   inkscape:window-y="-9"
   inkscape:window-maximized="1"
   inkscape:current-layer="svg2" />
<desc
   id="desc1">Created with Fabric.js 5.2.4</desc>
<defs
   id="defs1"><inkscape:perspective
   sodipodi:type="inkscape:persp3d"
   inkscape:vp_x="0 : -490.00001 : 1"
   inkscape:vp_y="0 : 1000 : 0"
   inkscape:vp_z="1080 : -490.00001 : 1"
   inkscape:persp3d-origin="540.00001 : -670.00001 : 1"
   id="perspective3" />
</defs>
<g
   transform="translate(25,45.76)"
   id="66af27e9-69c8-4c9c-bc16-09c6bc1eb7e5">
<rect
   style="visibility:hidden;opacity:1;fill:#ffffff;fill-rule:nonzero;stroke:none;stroke-width:1;stroke-linecap:butt;stroke-linejoin:miter;stroke-miterlimit:4;stroke-dasharray:none;stroke-dashoffset:0"
   vector-effect="non-scaling-stroke"
   x="-540"
   y="-540"
   rx="0"
   ry="0"
   width="1080"
   height="1080"
   id="rect1" />
</g>
<g
   transform="translate(25,45.76)"
   id="409b0094-dbdf-40f0-955b-1aa6e0083ea9">
</g>

<g
   transform="matrix(0.4464054,0,0,0.4464054,25,25)"
   id="841045c3-872e-4ddb-907f-d5639e9bf639"
   style="stroke-width:9.00750753;stroke-dasharray:none;paint-order:markers fill stroke">
<path
   style="opacity:1;fill:#656565;fill-rule:nonzero;stroke:#000cd4;stroke-width:9.00750753;stroke-linecap:butt;stroke-linejoin:miter;stroke-miterlimit:4;stroke-dasharray:none;stroke-dashoffset:0;paint-order:markers fill stroke"
   vector-effect="non-scaling-stroke"
   transform="translate(-50,-50)"
   d="M 50,92.875 C 26.358,92.875 7.125,73.642 7.125,50 7.125,26.358 26.358,7.125 50,7.125 73.642,7.125 92.875,26.358 92.875,50 92.875,73.642 73.642,92.875 50,92.875 Z M 50,9.125 C 27.461,9.125 9.125,27.461 9.125,50 9.125,72.538 27.461,90.875 50,90.875 72.538,90.875 90.875,72.538 90.875,50 90.875,27.461 72.538,9.125 50,9.125 Z"
   stroke-linecap="round"
   id="path2" />
</g>
<g
   sodipodi:type="inkscape:box3d"
   id="g3"
   style="fill:#ff0000;fill-opacity:0;stroke:#bf0000;stroke-width:5;stroke-linecap:round;stroke-linejoin:round;stroke-dasharray:none;paint-order:markers fill stroke"
   inkscape:perspectiveID="#perspective3"
   inkscape:corner0="1.3981481 : 0.475 : 0 : 1"
   inkscape:corner7="0.46052632 : 0.16781955 : 0.25 : 1"><path
     sodipodi:type="inkscape:box3dside"
     id="path8"
     style="fill:#e9e9ff;fill-rule:evenodd;stroke:none;stroke-linejoin:round"
     inkscape:box3dsidetype="11"
     d="M 305.87413,428.6014 473.53846,367.53846 V 547.12088 L 305.87413,544.59961 Z"
     points="473.53846,367.53846 473.53846,547.12088 305.87413,544.59961 305.87413,428.6014 " /><path
     sodipodi:type="inkscape:box3dside"
     id="path3"
     style="fill:#353564;fill-rule:evenodd;stroke:none;stroke-linejoin:round"
     inkscape:box3dsidetype="6"
     d="m 225.17375,416.98841 v 128.0907 l 80.70038,-0.4795 V 428.6014 Z"
     points="225.17375,545.07911 305.87413,544.59961 305.87413,428.6014 225.17375,416.98841 " /><path
     sodipodi:type="inkscape:box3dside"
     id="path7"
     style="fill:#afafde;fill-rule:evenodd;stroke:none;stroke-linejoin:round"
     inkscape:box3dsidetype="13"
     d="m 225.17375,545.07911 144.55598,3.26066 103.80873,-1.21889 -167.66433,-2.52127 z"
     points="369.72973,548.33977 473.53846,547.12088 305.87413,544.59961 225.17375,545.07911 " /><path
     sodipodi:type="inkscape:box3dside"
     id="path4"
     style="fill:#4d4d9f;fill-rule:evenodd;stroke:none;stroke-linejoin:round"
     inkscape:box3dsidetype="5"
     d="M 225.17375,416.98841 369.72973,338.01802 473.53846,367.53846 305.87413,428.6014 Z"
     points="369.72973,338.01802 473.53846,367.53846 305.87413,428.6014 225.17375,416.98841 " /><path
     sodipodi:type="inkscape:box3dside"
     id="path6"
     style="fill:#d7d7ff;fill-rule:evenodd;stroke:none;stroke-linejoin:round"
     inkscape:box3dsidetype="14"
     d="m 369.72973,338.01802 v 210.32175 l 103.80873,-1.21889 V 367.53846 Z"
     points="369.72973,548.33977 473.53846,547.12088 473.53846,367.53846 369.72973,338.01802 " /><path
     sodipodi:type="inkscape:box3dside"
     id="path5"
     style="fill:#8686bf;fill-rule:evenodd;stroke:none;stroke-linejoin:round"
     inkscape:box3dsidetype="3"
     d="M 225.17375,416.98841 369.72973,338.01802 V 548.33977 L 225.17375,545.07911 Z"
     points="369.72973,338.01802 369.72973,548.33977 225.17375,545.07911 225.17375,416.98841 " /></g></svg>
